<svg xmlns="http://www.w3.org/2000/svg" viewBox="0 0 410 404"><defs><linearGradient id="a" x1="62.8%" x2="17.8%" y1="0%" y2="99.3%"><stop offset="0%" stop-color="#5df3ff"/><stop offset="100%" stop-color="#4e3cff"/></linearGradient></defs><path fill="url(#a)" d="m255.153 5.455-96.873 185.084c-.68 1.59-2.395 5.784-5.435 4.806-3.04-.979-2.46-5.408-2.22-7.13L166.087 77.13c.051-.522-.051-1.056-.295-1.527-.244-.472-.618-.862-1.078-1.129-.46-.268-.987-.4-1.52-.386-.534.014-1.054.175-1.5.465L52.838 153.593c-1.528 1.02-5.755 3.684-7.605 1.378-1.85-2.305 1.665-5.513 3.044-6.602l210.44-150.24c2.417-1.665 7.615-5.063 11.383-4.162 3.769.9 2.882 6.54 2.396 8.488z"/><path fill="#fff" d="m149.19 233.33 29.99 129.975c.586 2.539 2.682 3.861 5.76 3.736 3.078-.124 4.877-1.686 5.395-4.658l20.581-120.015c.105-.57.351-1.1.715-1.543.363-.442.833-.785 1.37-.999.537-.214 1.125-.292 1.703-.234.577.057 1.129.256 1.597.578l62.821 42.392c2.162 1.45 6.36 4.601 8.606 2.366 2.247-2.235-.588-6.167-1.884-7.55l-105.96-108.92c-.401-.443-.908-.779-1.476-.98-.569-.202-1.18-.262-1.781-.175-.601.087-1.175.337-1.664.728-.489.391-.88.91-1.141 1.509l-22.495 51.86c-.271.611-.659 1.159-1.143 1.609-.484.45-1.054.79-1.675 1.003-.621.213-1.279.294-1.933.238-.654-.056-1.291-.255-1.864-.587l-43.481-25.68c-2.394-1.449-7.246-4.575-9.684-2.073-2.437 2.502 1.178 6.9 2.384 8.379l70.197 86.623c.351.42.775.753 1.245.977.47.224.975.334 1.485.325.51-.009 1.01-.134 1.472-.366.462-.232.878-.567 1.215-.983.337-.417.585-.907.722-1.435z"/></svg>
